<?xml version="1.0" standalone="no"?>
<!DOCTYPE svg PUBLIC "-//W3C//DTD SVG 20010904//EN"
 "http://www.w3.org/TR/2001/REC-SVG-20010904/DTD/svg10.dtd">
<svg version="1.0" xmlns="http://www.w3.org/2000/svg"
 width="533.000000pt" height="533.000000pt" viewBox="0 0 533.000000 533.000000"
 preserveAspectRatio="xMidYMid meet">
<metadata>
Created by potrace 1.11, written by Peter Selinger 2001-2013
</metadata>
<g transform="translate(0.000000,533.000000) scale(0.100000,-0.100000)"
fill="#000000" stroke="none">
<path d="M3592 5236 c-146 -37 -302 -154 -377 -284 -40 -69 -75 -177 -75 -230
0 -18 -5 -42 -11 -54 -10 -18 -14 -13 -47 54 -52 102 -93 159 -160 218 -105
92 -236 140 -385 140 -169 0 -351 -88 -450 -219 -77 -102 -120 -208 -132 -332
-10 -95 9 -182 68 -319 9 -19 25 -59 37 -89 11 -30 29 -73 40 -95 10 -23 35
-81 55 -131 38 -92 51 -124 78 -185 43 -98 65 -160 58 -164 -4 -3 -34 -15 -67
-27 -126 -47 -253 -144 -315 -241 l-31 -48 -61 0 c-144 0 -293 -44 -402 -118
-140 -95 -221 -206 -277 -377 -23 -70 -23 -72 -23 -670 l0 -600 28 -133 c47
-220 110 -377 225 -561 227 -363 626 -633 1047 -709 217 -39 400 -37 642 7
155 29 423 149 591 266 46 32 131 104 188 161 238 238 386 522 453 864 27 140
31 350 31 1792 0 1244 -3 1507 -15 1578 -19 118 -25 140 -48 180 -11 19 -27
48 -35 65 -25 47 -142 157 -206 194 -32 18 -86 42 -120 53 -77 26 -229 33
-304 14z m212 -340 c52 -18 100 -58 134 -109 l27 -42 0 -1650 0 -1650 -23 -95
c-13 -52 -27 -104 -31 -115 -5 -11 -13 -31 -18 -45 -139 -356 -400 -611 -768
-750 -203 -76 -475 -89 -710 -32 -22 6 -55 13 -73 17 -18 4 -35 12 -38 16 -3
5 -12 9 -19 9 -17 0 -158 67 -229 108 -80 47 -204 152 -276 233 -164 185 -257
374 -305 619 -22 112 -22 1198 0 1260 32 91 118 172 220 206 43 14 76 16 223
10 107 -4 180 -2 191 4 12 6 21 26 26 57 10 67 41 127 92 179 93 93 154 108
384 99 123 -5 179 -4 183 4 4 6 0 27 -8 46 -28 62 -43 98 -81 190 -20 50 -48
114 -61 143 -13 29 -24 58 -24 65 0 7 -4 17 -8 23 -5 5 -17 29 -26 54 -10 25
-24 60 -32 77 -8 18 -20 48 -28 65 -8 18 -31 74 -51 123 -36 87 -48 117 -79
188 -69 157 -96 241 -96 295 1 227 289 328 432 151 44 -54 58 -82 92 -184 15
-44 32 -90 37 -102 18 -45 27 -69 39 -103 7 -19 16 -44 20 -55 5 -11 38 -99
75 -195 36 -96 71 -185 76 -197 21 -53 32 -79 118 -303 69 -178 98 -240 119
-257 55 -46 142 -17 162 55 6 24 10 285 10 727 0 781 -4 735 81 809 72 63 159
81 243 52z"/>
</g>
</svg>
